<svg xmlns="http://www.w3.org/2000/svg" width="256" height="256"><path fill="#1976D2" fill-opacity=".016" fill-rule="evenodd" d="M0 128.004v128.004l128.25-.254 128.25-.254.254-127.75L257.008 0H0zm.485.496c0 70.4.119 99.053.265 63.672s.146-92.98 0-128S.485 58.1.485 128.5"/><path fill="#1976D2" fill-opacity=".028" fill-rule="evenodd" d="M95.867 1.954c-7.783 4.228-15.199 15.399-21.829 32.882l-3.541 9.336-10.695 2.75c-35.587 9.151-37.324 23.453-4.017 33.077L64 82.373l.015 7.064c.013 6.295 1.646 15.938 3.525 20.813.625 1.623-.519 1.75-15.778 1.75-14.668 0-16.631.198-18.107 1.829-.91 1.006-1.665 2.918-1.677 4.25s4.338 13.298 9.667 26.593l9.688 24.172-7.967 7.828C26 193.735 15.992 216.241 16.004 238.208c.004 8.387 1.912 12.551 7.237 15.797 3.195 1.949 5.238 1.988 104.759 1.988s101.564-.039 104.759-1.988c7.334-4.471 9.105-14.066 5.668-30.705-3.86-18.688-12.806-34.463-27.187-47.94l-6.552-6.14 9.667-24.36c5.316-13.398 9.662-25.528 9.656-26.955-.022-5.29-2.101-5.905-19.947-5.905-15.093 0-16.229-.127-15.604-1.75 1.879-4.875 3.512-14.518 3.525-20.813l.015-7.064 8.215-2.374c33.307-9.624 31.567-23.938-4.019-33.072L185.5 44.181l-3.556-9.34c-6.872-18.049-14.166-28.873-22.229-32.986-6.279-3.204-15.795-2.351-22.845 2.047-7.094 4.426-10.828 4.434-17.762.04-4.639-2.941-6.384-3.455-12.5-3.689-5.551-.213-7.904.16-10.741 1.701M80.31 91.415c.721 7.721 2.326 11.18 7.157 15.422 4.483 3.936 7.158 4.679 16.533 4.597 10.494-.092 15.063-2.875 20.203-12.308 2.251-4.129 5.343-4.129 7.594 0 5.14 9.433 9.709 12.216 20.203 12.308 9.375.082 12.05-.661 16.533-4.597 4.831-4.242 6.436-7.701 7.157-15.422.607-6.497.598-6.526-1.79-5.991-14.671 3.286-77.888 3.305-91.8.028-2.39-.563-2.397-.539-1.79 5.963m.676 54.339c-.032 1.697 22.555 91.239 23.016 91.242.62.005 15.037-57.828 15.014-60.229-.009-.954-1.653-5.041-3.653-9.084l-3.636-7.349-15.364-7.663c-8.45-4.215-15.369-7.327-15.377-6.917m78.405 7.022-15.11 7.553-3.969 8.007-3.969 8.007 7.578 30.328c4.169 16.68 7.804 30.323 8.079 30.317.609-.013 23.342-90.991 22.849-91.444-.192-.176-7.148 3.078-15.458 7.232"/><path fill="#1976D2" fill-opacity=".123" fill-rule="evenodd" d="M97.266 1.421C89.338 5.022 80.014 19.07 73.532 37.18c-2.732 7.632-2.776 7.685-6.891 8.364-6.06.999-19.439 5.334-24.761 8.023C36.743 56.163 32 61.171 32 64c0 5.277 9.116 11.318 23.206 15.38l8.294 2.391.605 8.364c.332 4.601 1.345 11.214 2.25 14.696S68 111.35 68 111.581s-7.167.419-15.927.419H36.145l-2.072 2.635c-1.14 1.449-2.073 3.152-2.073 3.784s4.484 12.329 9.965 25.993l9.964 24.843-7.47 6.977c-16.136 15.069-26.317 36.215-28.081 58.324-.551 6.896-.342 8.736 1.446 12.78 1.664 3.761 2.964 5.12 6.383 6.672 4.163 1.889 7.306 1.948 103.793 1.948 94.957 0 99.687-.085 103.606-1.865 3.054-1.387 4.655-2.998 6.25-6.293 2.533-5.234 2.666-9.541.652-21.093-3.379-19.378-12.807-37.085-26.842-50.417l-7.542-7.165 9.938-24.777c5.466-13.628 9.938-25.295 9.938-25.927s-.933-2.335-2.073-3.784L219.855 112h-15.928c-10.882 0-15.927-.347-15.927-1.096 0-.603.714-3.553 1.587-6.556s1.886-9.312 2.25-14.018l.663-8.558 8.294-2.391c10.507-3.03 17.227-6.429 20.576-10.409 3.31-3.933 3.31-6.011 0-9.944-4.17-4.956-14.501-9.465-29.692-12.959l-6.821-1.569-1.985-6c-1.091-3.3-4.204-10.586-6.917-16.192C170.427 10.89 163.572 3.004 157.401.967c-5.802-1.915-13.52-.632-20.844 3.464C133.047 6.394 129.166 8 127.934 8c-1.233 0-5.16-1.632-8.726-3.626-7.615-4.259-16.448-5.448-21.942-2.953M80.159 91.812c.333 5.884.911 7.825 3.371 11.318C87.973 109.437 93.598 112 103 112c10.214 0 15.289-2.541 19.5-9.763 4.626-7.934 6.374-7.934 11 0 4.537 7.781 9.458 10.044 20.746 9.539 7.728-.346 9.232-.734 12.923-3.334 5.792-4.079 8.831-10.18 8.831-17.728v-5.972l-4.75.625c-25.574 3.362-60.981 3.356-86.621-.016l-4.871-.641zm.051 53.364c.264.728 5.607 21.911 11.874 47.074 6.266 25.163 11.63 45.75 11.918 45.75s4.006-13.959 8.263-31.019l7.738-31.02-4.012-7.98-4.013-7.98-16.124-8.074c-8.869-4.441-15.908-7.479-15.644-6.751m79.551 6.93-15.739 7.895-4.013 7.98-4.012 7.98 7.738 31.02c4.257 17.06 7.974 31.019 8.261 31.019.486 0 24.083-93.28 23.686-93.63-.1-.088-7.265 3.393-15.921 7.736"/><path fill="#1976D2" fill-opacity=".102" fill-rule="evenodd" d="M102 1.117c0 .624-.882.886-2 .593-1.1-.287-2-.04-2 .55s-.279.795-.619.454c-.341-.34-1.163-.078-1.827.584s-2.748 2.573-4.631 4.249c-3.56 3.17-6.586 7.787-10.126 15.453-1.143 2.475-2.468 4.651-2.944 4.835s-.611.747-.3 1.25.103.915-.463.915c-.565 0-.768.675-.452 1.5.317.825.078 1.5-.531 1.5s-1.021.337-.917.75c.388 1.526-1.379 7.25-2.238 7.25-.489 0-.62.702-.291 1.56q.602 1.56-1.531 2.116c-1.172.307-2.13 1.004-2.13 1.549 0 .559-1.092.718-2.5.364-1.567-.393-2.5-.203-2.5.509 0 .643-.867.909-2 .612-1.1-.287-2-.062-2 .5s-.9.788-2 .5c-1.1-.287-2-.067-2 .491 0 .557-.675.754-1.5.437-.825-.316-1.5-.091-1.5.5 0 .592-.675.817-1.5.5s-1.5-.102-1.5.477c0 .578-.558.866-1.241.638s-1.86.205-2.616.961c-.756.757-1.876 1.208-2.487 1.005s-1.995.45-3.073 1.455C39.505 56.178 38.109 57 37.48 57c-.628 0-1.78 1.237-2.559 2.75s-1.869 3.122-2.419 3.576c-.65.536-.563 1.004.248 1.333.688.279 1.25 1.177 1.25 1.996 0 1.963 1.79 3.655 5.678 5.369 1.748.77 2.962 1.75 2.698 2.177s.218.508 1.072.181c.856-.329 1.552-.073 1.552.57 0 .641.45.888 1 .548s1-.156 1 .41c0 .565.675.768 1.5.452.825-.317 1.5-.092 1.5.5 0 .591.675.816 1.5.5.825-.317 1.5-.092 1.5.5 0 .591.675.816 1.5.5.825-.317 1.5-.048 1.5.598 0 .72.775.929 2 .54 1.121-.356 2-.18 2 .401 0 .57.663.782 1.474.47.811-.311 2.161.121 3 .96C66.192 83.049 66.524 86 65 86c-.55 0-1 .9-1 2s.484 2 1.076 2c.63 0 .99 1.757.87 4.25-.112 2.338.119 5.016.513 5.952.395.936.427 2.174.071 2.75-.357.576-.224 1.048.294 1.048.519 0 1.162 1.013 1.431 2.25.268 1.237.819 3.037 1.223 4 .684 1.626-.444 1.75-15.93 1.75-12.47 0-16.484.295-15.943 1.17.485.785.179.961-.931.535-1.193-.458-1.826.052-2.272 1.83-.34 1.356-1.075 2.465-1.633 2.465q-1.017-.002.014 1.25c.565.688 1.182 2.15 1.372 3.25s.638 2.225.995 2.5c.358.275.808 1.4 1 2.5.193 1.1.938 2.621 1.658 3.379.719.758 1.081 1.967.806 2.685-.276.719-.118 1.448.351 1.621s1.006 1.215 1.193 2.315.925 2.615 1.637 3.366 1.126 1.872.919 2.491.244 1.744 1 2.5c.757.756 1.207 1.881 1 2.5-.206.619.244 1.744 1 2.5.757.756 1.207 1.881 1 2.5-.206.619.244 1.744 1 2.5.757.756 1.207 1.881 1 2.5-.206.619.25 1.75 1.013 2.513s1.151 2.005.862 2.759-.121 1.371.375 1.371 1.182.884 1.525 1.965c.437 1.376-.34 3.024-2.593 5.5-1.77 1.944-3.721 3.535-4.336 3.535s-1.78 1.001-2.589 2.224-2.933 3.744-4.721 5.6c-1.787 1.857-3.25 3.795-3.25 4.307s-.672 1.19-1.494 1.505c-.822.316-1.244.98-.937 1.476s-.143 1.171-1 1.5-1.351.932-1.098 1.341-.398 1.664-1.445 2.789-1.633 2.318-1.299 2.652c.333.333.055.606-.619.606s-.948.45-.608 1 .115 1-.5 1-.84.45-.5 1 .115 1-.5 1-.84.45-.5 1 .156 1-.41 1c-.565 0-.768.675-.452 1.5.317.825.174 1.5-.318 1.5s-.97 1.006-1.063 2.235c-.092 1.23-.59 2.376-1.106 2.548s-.709 1.191-.428 2.265.05 1.952-.513 1.952c-.562 0-.787.9-.5 2s.083 2-.455 2-.763 1.125-.5 2.5c.282 1.472.014 2.5-.65 2.5-.751 0-.921 1.298-.509 3.874.384 2.402.198 4.135-.488 4.559-1.38.853-1.475 7.567-.108 7.567.55 0 1 .838 1 1.862 0 2.594 5.215 8.9 6.896 8.339.776-.258 1.101-.006.742.576-.394.637.13.835 1.361.513 1.119-.293 2.001-.031 2.001.593 0 .815 26.773 1.117 99 1.117s99-.302 99-1.117c0-.624.882-.886 2.001-.593 1.231.322 1.755.124 1.361-.513-.356-.577-.04-.836.714-.585 1.833.611 5.791-4.275 6.554-8.092.341-1.705 1.014-3.1 1.495-3.1s.875-.675.875-1.5-.506-1.5-1.124-1.5c-.751 0-.972-1.825-.668-5.5.251-3.025.05-5.5-.447-5.5s-.805-1.013-.684-2.25-.111-3.016-.517-3.952c-.405-.936-.446-2.174-.09-2.75.357-.576.123-1.048-.518-1.048s-.907-.675-.59-1.5c.316-.825.091-1.5-.5-1.5-.592 0-.817-.675-.5-1.5s.091-1.5-.5-1.5c-.592 0-.828-.646-.525-1.435.303-.79.106-1.584-.438-1.765-.543-.181-1.064-1.335-1.156-2.565-.093-1.229-.549-2.235-1.015-2.235s-.568-.45-.228-1 .115-1-.5-1-.84-.45-.5-1 .066-1-.608-1-.962-.263-.641-.585c.322-.321-.057-1.333-.841-2.25-.785-.916-1.34-1.89-1.234-2.165.105-.275-1.016-1.803-2.492-3.396S221 188.397 221 188.017c0-.579-6.395-7.995-8.778-10.179-8.597-7.88-9.117-8.525-8.563-10.641.316-1.208.876-2.197 1.245-2.197s.746-1.006.839-2.235c.092-1.23.613-2.384 1.156-2.565.544-.181.763-.917.487-1.636-.275-.718.087-1.927.806-2.685s1.462-2.279 1.65-3.379.725-2.142 1.193-2.315.627-.902.351-1.621c-.275-.718.124-1.931.887-2.694s1.219-1.894 1.013-2.513.243-1.744 1-2.5c.756-.756 1.206-1.881 1-2.5-.207-.619.207-1.74.919-2.491s1.452-2.266 1.645-3.366c.192-1.1.642-2.225 1-2.5.357-.275.807-1.4 1-2.5s.642-2.225 1-2.5c.357-.275.774-1.605.925-2.956s.826-2.807 1.5-3.235c.844-.536.87-.783.083-.794-.627-.008-1.42-1.124-1.76-2.48-.446-1.778-1.079-2.288-2.272-1.83-1.11.426-1.416.25-.931-.535.541-.875-3.464-1.17-15.903-1.17h-16.627l.7-2.25c.385-1.237 1.065-2.392 1.511-2.565s.564-.96.261-1.75c-.303-.789-.115-1.435.417-1.435.533 0 .754-1.125.491-2.5s-.085-2.5.396-2.5.711-3.585.512-7.967c-.289-6.372-.035-8.293 1.268-9.597.897-.897 2.294-1.376 3.105-1.065.811.312 1.474.1 1.474-.47 0-.601.892-.753 2.125-.361 1.566.497 1.92.341 1.344-.59-.569-.921-.195-1.112 1.375-.701 1.186.31 2.156.108 2.156-.45 0-.557.675-.754 1.5-.437.825.316 1.5.091 1.5-.5 0-.592.675-.817 1.5-.5s1.5.113 1.5-.452.45-.75 1-.41 1 .172 1-.374c0-.994 3.843-2.696 5.25-2.324.412.109.75-.252.75-.802s.513-1 1.14-1c1.998 0 3.795-3.381 3.828-7.199.027-3.127-.548-4.132-3.718-6.5-2.062-1.541-3.892-3.113-4.065-3.495-.173-.381-.902-.468-1.621-.192-.718.275-1.931-.124-2.694-.887s-1.946-1.202-2.629-.974-1.241-.06-1.241-.638-.675-.793-1.5-.477-1.5.092-1.5-.5c0-.591-.675-.816-1.5-.5-.825.317-1.5.12-1.5-.437 0-.558-.9-.778-2-.491s-2 .063-2-.5-.9-.787-2-.5c-1.133.297-2 .031-2-.612 0-.712-.933-.902-2.5-.509-1.54.387-2.5.202-2.5-.481 0-.609-.659-1.108-1.465-1.108-1.757 0-3.469-2.936-3.76-6.447-.116-1.404-.611-2.553-1.1-2.553s-.641-.646-.338-1.435c.303-.79.106-1.584-.438-1.765-.543-.181-1.064-1.335-1.156-2.565-.093-1.229-.443-2.235-.778-2.235-.556 0-4.555-8.141-5.157-10.5-.141-.55-1.039-1.9-1.995-3s-1.848-2.45-1.981-3c-.132-.55-2.062-2.512-4.287-4.361s-4.196-3.764-4.38-4.256-.747-.641-1.25-.33-.915.131-.915-.4-.9-.73-2-.443c-1.118.293-2 .031-2-.593 0-1.433-4.668-1.463-5.55-.036-.387.627-1.778.803-3.307.419-1.451-.365-2.323-.347-1.937.039.73.731-9.137 6.104-10.456 5.694-.412-.128-.75.115-.75.54s-1.8.772-4 .772-4-.347-4-.772-.338-.668-.75-.54c-1.319.41-11.186-4.963-10.456-5.694.386-.386-.486-.404-1.937-.039-1.529.384-2.92.208-3.307-.419-.882-1.427-5.55-1.397-5.55.036m73.147 82.538c-.097.759-1.518.971-4.147.618-2.538-.34-4-.14-4 .548 0 .714-1.709.882-5 .493-2.919-.346-5-.196-5 .361 0 .575-4.565.779-11.5.514-8.118-.311-11.5-.11-11.5.685 0 .72-2.364 1.126-6.559 1.126-4.625 0-6.353-.334-5.86-1.131.511-.826-2.439-1.011-10.941-.686-7.028.269-11.64.068-11.64-.508 0-.557-2.081-.707-5-.361-2.916.345-5 .195-5-.361 0-1.058-3.346-1.235-6.636-.353-1.818.488-2.205 1.492-2.597 6.737-.254 3.39-.106 6.305.33 6.478.435.173.564.905.287 1.628-.278.722 1.705 3.618 4.406 6.435 4.415 4.605 6.054 5.62 8.46 5.24.412-.065.75.22.75.632s4.05.75 9 .75 9-.338 9-.75c0-.413.338-.697.75-.632 2.108.333 3.588-.428 7.239-3.727 2.197-1.985 3.747-4.01 3.444-4.5s.001-.891.675-.891.947-.279.606-.619c-.871-.871 1.836-3.381 3.647-3.381.827 0 1.806.95 2.174 2.111.867 2.73 7.444 10.02 8.469 9.386.433-.267 1.062.234 1.4 1.112.349.912 1.254 1.352 2.104 1.026.821-.315 1.492-.249 1.492.146 0 .396 4.05.719 9 .719s9-.337 9-.75c0-.412.338-.697.75-.632 2.238.354 3.718-.585 8.304-5.269 2.774-2.833 4.822-5.729 4.551-6.436s-.137-1.425.299-1.598c.435-.173.475-3.69.09-7.815s-.767-6.98-.847-6.345M191.158 88c0 1.375.227 1.938.504 1.25.278-.687.278-1.812 0-2.5-.277-.687-.504-.125-.504 1.25M79.435 145.206c-.398 1.253-.257 2.353.326 2.548.565.188.797 1.22.516 2.294s-.05 1.952.513 1.952c.562 0 .787.9.5 2s-.063 2 .5 2 .787.9.5 2-.063 2 .5 2 .787.9.5 2-.063 2 .5 2 .787.9.5 2-.063 2 .5 2 .787.9.5 2-.063 2 .5 2 .787.9.5 2-.063 2 .5 2 .787.9.5 2-.063 2 .5 2 .787.9.5 2-.063 2 .5 2 .787.9.5 2-.063 2 .5 2 .787.9.5 2-.063 2 .5 2 .787.9.5 2-.063 2 .5 2 .787.9.5 2-.063 2 .5 2 .787.9.5 2-.063 2 .5 2 .787.9.5 2-.063 2 .5 2 .787.9.5 2-.063 2 .5 2 .787.9.5 2-.063 2 .5 2 .787.9.5 2-.063 2 .5 2 .787.9.5 2-.063 2 .5 2 .787.9.5 2-.063 2 .5 2 .787.9.5 2-.063 2 .5 2 .787.9.5 2-.063 2 .5 2 .776.945.473 2.101c-.435 1.664-.155 2.02 1.344 1.712 1.047-.216 1.831-1.154 1.754-2.101-.076-.942.314-1.712.867-1.712s.77-.9.482-2c-.287-1.1-.062-2 .5-2s.788-.9.5-2c-.287-1.1-.062-2 .5-2s.788-.9.5-2c-.287-1.1-.062-2 .5-2s.788-.9.5-2c-.287-1.1-.062-2 .5-2s.788-.9.5-2c-.287-1.1-.062-2 .5-2s.788-.9.5-2c-.287-1.1-.062-2 .5-2s.788-.9.5-2c-.287-1.1-.062-2 .5-2s.788-.9.5-2c-.287-1.1-.062-2 .5-2s.788-.9.5-2c-.287-1.1-.062-2 .5-2s.788-.9.5-2c-.287-1.1-.062-2 .5-2s.788-.9.5-2c-.287-1.1-.062-2 .5-2s.788-.9.5-2c-.287-1.1-.062-2 .5-2s.788-.9.5-2c-.287-1.1-.062-2 .5-2s.788-.9.5-2c-.287-1.1-.133-2 .343-2s.772-1.349.657-2.998c-.116-1.649-.574-2.999-1.019-3s-.531-.452-.191-1.002.115-1-.5-1-.84-.45-.5-1 .115-1-.5-1-.84-.45-.5-1 .115-1-.5-1-.84-.45-.5-1 .115-1-.5-1-.84-.45-.5-1 .115-1-.5-1-.84-.45-.5-1 .066-1-.608-1-.952-.273-.619-.607c.793-.792-1.545-3.321-2.523-2.729-.412.25-.75-.049-.75-.664s-.45-.84-1-.5-1 .115-1-.5-.45-.84-1-.5-1 .115-1-.5-.45-.84-1-.5-1 .115-1-.5-.45-.84-1-.5-1 .066-1-.608-.279-.947-.619-.606c-.341.34-1.277-.039-2.081-.843s-1.875-1.206-2.381-.893-.919.065-.919-.55-.45-.84-1-.5-1 .115-1-.5-.45-.84-1-.5-1 .115-1-.5-.45-.84-1-.5-1 .115-1-.5-.45-.84-1-.5-1 .115-1-.5-.45-.84-1-.5-1 .066-1-.608-.279-.947-.619-.606c-.341.34-1.273-.035-2.071-.834-2.02-2.019-3.059-1.817-3.875.754M174 143.937c0 .649-.45.903-1 .563s-1-.115-1 .5-.414.862-.919.55c-.506-.313-1.577.089-2.381.893s-1.74 1.183-2.081.843-.619-.068-.619.606-.45.948-1 .608-1-.115-1 .5-.45.84-1 .5-1-.115-1 .5-.45.84-1 .5-1-.115-1 .5-.45.84-1 .5-1-.115-1 .5-.45.84-1 .5-1-.115-1 .5-.45.84-1 .5-1-.115-1 .5-.45.84-1 .5-1-.115-1 .5-.45.84-1 .5-1-.115-1 .5-.45.84-1 .5-1-.115-1 .5-.45.84-1 .5-1-.066-1 .608-.273.952-.607.619c-.792-.793-3.321 1.545-2.729 2.523.25.412-.049.75-.664.75s-.84.45-.5 1 .115 1-.5 1-.84.45-.5 1 .115 1-.5 1-.84.45-.5 1 .115 1-.5 1-.84.45-.5 1 .115 1-.5 1-.84.45-.5 1 .115 1-.5 1-.84.45-.5 1 .254 1.001-.191 1.002-.903 1.351-1.019 3 .18 2.998.657 2.998c.476 0 .63.9.343 2-.288 1.1-.063 2 .5 2s.787.9.5 2-.063 2 .5 2 .787.9.5 2-.063 2 .5 2 .787.9.5 2-.063 2 .5 2 .787.9.5 2-.063 2 .5 2 .787.9.5 2-.063 2 .5 2 .787.9.5 2-.063 2 .5 2 .787.9.5 2-.063 2 .5 2 .787.9.5 2-.063 2 .5 2 .787.9.5 2-.063 2 .5 2 .787.9.5 2-.063 2 .5 2 .787.9.5 2-.063 2 .5 2 .787.9.5 2-.063 2 .5 2 .787.9.5 2-.071 2 .482 2 .943.787.867 1.75c-.077.963.536 1.75 1.361 1.75s1.438-.787 1.361-1.75.314-1.75.867-1.75.77-.9.482-2c-.287-1.1-.062-2 .5-2s.788-.9.5-2c-.287-1.1-.062-2 .5-2s.788-.9.5-2c-.287-1.1-.062-2 .5-2s.788-.9.5-2c-.287-1.1-.062-2 .5-2s.788-.9.5-2c-.287-1.1-.062-2 .5-2s.788-.9.5-2c-.287-1.1-.062-2 .5-2s.788-.9.5-2c-.287-1.1-.062-2 .5-2s.788-.9.5-2c-.287-1.1-.062-2 .5-2s.788-.9.5-2c-.287-1.1-.062-2 .5-2s.788-.9.5-2c-.287-1.1-.062-2 .5-2s.788-.9.5-2c-.287-1.1-.062-2 .5-2s.788-.9.5-2c-.287-1.1-.062-2 .5-2s.788-.9.5-2c-.287-1.1-.062-2 .5-2s.788-.9.5-2c-.287-1.1-.062-2 .5-2s.788-.9.5-2c-.287-1.1-.062-2 .5-2s.788-.9.5-2c-.287-1.1-.062-2 .5-2s.788-.9.5-2c-.287-1.1-.062-2 .5-2s.788-.9.5-2c-.287-1.1-.062-2 .5-2s.788-.9.5-2c-.287-1.1-.062-2 .5-2s.788-.9.5-2c-.287-1.1-.062-2 .5-2s.788-.9.5-2c-.287-1.1-.062-2 .5-2s.788-.9.5-2c-.287-1.1-.115-2 .384-2 1.441 0 1.05-2.635-.594-4-1.118-.928-1.5-.944-1.5-.063"/></svg>